<?xml version="1.0" standalone="no"?>
<!DOCTYPE svg PUBLIC "-//W3C//DTD SVG 20010904//EN"
 "http://www.w3.org/TR/2001/REC-SVG-20010904/DTD/svg10.dtd">
<svg version="1.0" xmlns="http://www.w3.org/2000/svg"
 width="16.000000pt" height="16.000000pt" viewBox="0 0 16.000000 16.000000"
 preserveAspectRatio="xMidYMid meet">
<metadata>
Created by potrace 1.11, written by Peter Selinger 2001-2013
</metadata>
<g transform="translate(0.000000,16.000000) scale(0.008602,-0.008602)"
fill="#000000" stroke="none">
<path d="M1350 1478 c0 -99 -1 -102 -18 -82 -52 65 -169 58 -233 -12 -54 -60
-66 -177 -26 -255 50 -97 204 -119 261 -38 l16 23 0 -32 c0 -27 4 -32 25 -32
l25 0 0 265 0 265 -25 0 -25 0 0 -102z m-52 -94 c74 -48 68 -250 -9 -289 -71
-37 -155 -4 -179 71 -17 51 -8 148 16 182 44 59 114 74 172 36z"/>
<path d="M477 1514 c-4 -4 -7 -25 -7 -46 0 -34 -3 -38 -26 -38 -33 0 -30 -33
4 -38 22 -3 22 -6 22 -153 0 -147 1 -150 25 -175 19 -19 34 -24 58 -22 46 4
50 36 5 40 l-33 3 -3 153 -3 152 36 0 c28 0 35 4 35 20 0 16 -7 20 -34 20 -34
0 -35 1 -38 42 -3 41 -22 60 -41 42z"/>
<path d="M171 1426 c-31 -17 -50 -53 -51 -94 0 -46 42 -86 113 -107 99 -29
134 -78 87 -125 -31 -31 -113 -28 -145 5 -14 13 -25 31 -25 40 0 9 -9 15 -26
15 -22 0 -24 -3 -18 -22 19 -63 72 -98 144 -98 93 0 153 64 130 136 -14 41
-51 67 -128 89 -86 26 -113 67 -73 116 38 47 128 24 152 -38 9 -23 49 -33 49
-12 0 26 -32 76 -59 92 -35 20 -116 22 -150 3z"/>
<path d="M660 1290 c0 -154 10 -196 54 -225 56 -37 159 -27 191 18 15 21 15
21 15 -6 0 -22 4 -27 25 -27 l25 0 0 190 0 190 -25 0 -25 0 0 -130 c0 -140 -9
-174 -52 -204 -27 -19 -96 -20 -119 -3 -33 25 -39 55 -39 196 l0 141 -25 0
-25 0 0 -140z"/>
<path d="M1465 1409 c4 -11 37 -100 74 -198 65 -170 67 -179 53 -207 -24 -47
-43 -64 -74 -64 -21 0 -28 -5 -28 -20 0 -16 7 -20 36 -20 63 0 89 39 181 281
45 118 85 222 88 232 6 13 2 17 -18 17 -23 0 -29 -11 -83 -165 -32 -91 -61
-165 -65 -165 -3 0 -32 74 -64 165 -53 153 -59 165 -82 165 -20 0 -23 -4 -18
-21z"/>
<path d="M685 920 c-38 -11 -101 -28 -140 -38 -38 -11 -71 -24 -73 -30 -2 -7
8 -22 22 -35 24 -23 26 -30 26 -118 0 -83 -2 -96 -20 -107 -26 -16 -25 -34 1
-51 21 -12 21 -18 16 -102 -7 -97 3 -142 30 -137 24 4 31 38 32 154 l1 100 49
13 c57 14 91 36 91 58 0 16 -7 16 -106 -3 -31 -6 -31 -5 -37 44 -3 27 -3 74 0
104 l5 54 79 28 c47 17 86 25 99 21 39 -12 72 44 34 59 -22 8 -30 7 -109 -14z"/>
<path d="M1207 923 c-14 -13 -6 -44 21 -82 15 -22 30 -40 33 -41 11 0 49 78
49 99 0 23 -19 32 -42 20 -10 -6 -19 -5 -23 1 -7 11 -28 13 -38 3z m50 -53 c7
0 13 7 13 15 0 8 5 15 10 15 6 0 3 -14 -6 -31 l-16 -32 -19 29 c-10 16 -19 34
-18 39 0 6 5 0 11 -12 6 -13 17 -23 25 -23z"/>
<path d="M1106 868 c-10 -62 -26 -314 -26 -411 0 -86 2 -97 20 -107 11 -6 24
-9 29 -6 4 3 10 89 13 191 3 102 8 189 12 193 10 9 21 -12 56 -108 17 -47 45
-114 63 -150 27 -54 36 -65 57 -65 l25 0 7 150 c3 83 11 191 17 240 6 50 11
93 11 98 0 4 -13 7 -29 7 l-28 0 -18 -155 c-10 -85 -21 -155 -25 -155 -5 0
-29 57 -55 127 -61 167 -70 183 -100 183 -19 0 -25 -6 -29 -32z"/>
<path d="M981 838 c-16 -42 -50 -162 -66 -233 -16 -72 -51 -155 -65 -155 -14
0 -20 62 -20 217 l0 154 -27 -3 -28 -3 -9 -125 c-12 -190 11 -302 66 -308 66
-8 104 51 157 245 50 183 56 214 39 224 -22 15 -38 10 -47 -13z"/>
<path d="M657 486 c-3 -8 -16 -16 -29 -19 l-23 -4 23 -8 c17 -5 22 -13 19 -26
-6 -21 18 -27 26 -6 4 10 6 10 6 0 1 -7 6 -13 12 -13 7 0 9 10 7 25 -4 21 -1
25 19 25 14 0 21 4 18 10 -3 6 -15 10 -26 10 -10 0 -19 5 -19 10 0 15 -27 12
-33 -4z"/>
</g>
</svg>
