<?xml version="1.0" standalone="no"?>
<!DOCTYPE svg PUBLIC "-//W3C//DTD SVG 20010904//EN"
 "http://www.w3.org/TR/2001/REC-SVG-20010904/DTD/svg10.dtd">
<svg version="1.0" xmlns="http://www.w3.org/2000/svg"
 width="16.000000pt" height="16.000000pt" viewBox="0 0 16.000000 16.000000"
 preserveAspectRatio="xMidYMid meet">
<metadata>
Created by potrace 1.11, written by Peter Selinger 2001-2013
</metadata>
<g transform="translate(0.000000,16.000000) scale(0.008602,-0.008602)"
fill="#000000" stroke="none">
<path d="M1350 1473 c-1 -95 -2 -105 -14 -84 -18 33 -53 50 -104 51 -81 0
-146 -47 -172 -126 -16 -47 -9 -139 14 -186 44 -91 182 -117 248 -46 l28 30 0
-31 c0 -24 4 -31 20 -31 19 0 20 7 20 265 0 258 -1 265 -20 265 -19 0 -20 -7
-20 -107z m-62 -83 c42 -26 62 -74 62 -151 0 -107 -42 -162 -126 -162 -77 0
-124 64 -124 169 0 126 97 200 188 144z"/>
<path d="M470 1470 c0 -36 -2 -40 -25 -40 -16 0 -25 -6 -25 -15 0 -9 9 -15 25
-15 l25 0 0 -144 c0 -80 4 -156 10 -171 11 -29 53 -49 87 -40 35 8 28 33 -9
37 l-33 3 -3 158 -3 157 36 0 c24 0 35 5 35 15 0 10 -11 15 -35 15 -34 0 -35
1 -35 40 0 36 -2 40 -25 40 -22 0 -25 -4 -25 -40z"/>
<path d="M174 1424 c-35 -17 -54 -50 -54 -95 0 -44 44 -83 115 -104 33 -9 70
-26 83 -38 41 -38 23 -90 -36 -108 -52 -15 -109 8 -125 51 -8 21 -18 30 -34
30 -23 0 -23 -1 -8 -36 8 -20 15 -38 15 -41 0 -2 19 -13 43 -23 68 -32 136
-23 185 22 16 16 22 33 22 65 0 58 -26 84 -116 113 -102 33 -130 75 -79 125
15 15 36 25 54 25 32 0 91 -43 91 -66 0 -8 10 -14 25 -14 29 0 30 2 9 45 -28
59 -121 83 -190 49z"/>
<path d="M660 1303 c1 -151 10 -200 45 -230 52 -46 145 -42 195 8 l30 31 0
-31 c0 -24 4 -31 20 -31 19 0 20 7 20 190 0 179 -1 190 -19 190 -17 0 -19 -11
-23 -127 -4 -132 -14 -169 -54 -204 -46 -40 -124 -28 -149 22 -11 21 -15 64
-15 169 l0 140 -25 0 -25 0 0 -127z"/>
<path d="M1464 1413 c3 -10 37 -99 75 -198 58 -151 67 -184 59 -207 -12 -34
-62 -78 -89 -78 -10 0 -19 -7 -19 -15 0 -25 63 -19 93 9 39 36 56 75 188 429
l28 77 -23 0 c-22 0 -29 -14 -82 -170 -33 -93 -61 -170 -64 -170 -3 0 -32 77
-64 170 -55 156 -61 170 -83 170 -19 0 -23 -4 -19 -17z"/>
<path d="M695 920 c-38 -11 -100 -28 -138 -38 -86 -23 -96 -33 -63 -60 25 -19
26 -24 26 -125 0 -96 -2 -105 -20 -110 -26 -7 -26 -34 1 -42 21 -7 22 -11 16
-99 -4 -62 -2 -99 6 -115 33 -66 57 -10 57 129 l0 96 55 18 c54 17 85 38 85
58 0 6 -13 8 -32 4 -18 -3 -49 -9 -69 -12 l-36 -6 -7 50 c-3 27 -4 74 0 104
l6 55 70 27 c38 14 85 26 103 24 43 -3 64 15 49 40 -15 24 -29 24 -109 2z"/>
<path d="M1207 923 c-4 -3 -7 -13 -7 -21 0 -17 52 -102 62 -102 9 0 48 87 48
107 0 11 -8 14 -30 11 -17 -3 -33 -1 -36 4 -6 10 -28 11 -37 1z m33 -39 c0
-19 17 -18 29 3 5 10 12 15 16 11 4 -3 -1 -18 -10 -32 l-17 -26 -19 24 c-20
26 -26 51 -9 41 6 -3 10 -13 10 -21z"/>
<path d="M1106 868 c-9 -59 -26 -324 -26 -411 0 -65 4 -89 16 -102 34 -33 39
-13 45 179 4 103 11 192 16 197 6 6 26 -32 53 -103 61 -160 96 -228 119 -228
27 0 31 18 31 128 0 53 7 156 14 227 8 72 11 134 6 138 -4 5 -16 7 -26 5 -17
-3 -21 -24 -38 -161 -12 -96 -23 -154 -28 -149 -5 5 -34 74 -64 153 -30 79
-60 147 -67 151 -27 17 -46 8 -51 -24z"/>
<path d="M986 844 c-9 -8 -16 -26 -16 -40 0 -13 -7 -41 -15 -61 -8 -21 -24
-78 -35 -126 -21 -90 -53 -167 -70 -167 -6 0 -11 1 -12 3 -1 1 -4 83 -7 182
-6 176 -6 180 -28 183 -30 4 -34 -14 -36 -183 -2 -144 9 -209 39 -240 36 -36
90 -4 132 80 16 33 70 220 96 337 8 36 -24 57 -48 32z"/>
<path d="M660 486 c0 -8 -12 -17 -27 -19 -28 -4 -28 -4 -5 -12 17 -5 22 -13
19 -26 -5 -20 8 -26 18 -9 5 8 12 7 23 -2 13 -11 14 -10 8 15 -5 23 -3 27 14
27 11 0 20 5 20 10 0 6 -9 10 -19 10 -11 0 -23 5 -26 10 -9 15 -25 12 -25 -4z"/>
</g>
</svg>
